<svg xmlns="http://www.w3.org/2000/svg" viewBox="0 0 800 1000">
<defs><clipPath id="h15241"><rect x="170.0" y="570.0" width="460" height="260"/></clipPath></defs>
<filter id="grain"><feTurbulence type="fractalNoise" baseFrequency="0.9" numOctaves="2" result="n"/>
<feColorMatrix in="n" type="matrix" values="0 0 0 0 0  0 0 0 0 0  0 0 0 0 0  0.05 0 0 0 0"/></filter>
<rect width="800" height="1000" fill="#e8e4da"/>
<rect width="800" height="1000" filter="url(#grain)" opacity="0.55"/>
<ellipse cx="400.0" cy="560.0" rx="330" ry="380" fill="#141412" opacity="0.045"/>
<g fill="#141412" opacity="0.5">
  <circle cx="70" cy="120" r="1.6"/><circle cx="120" cy="88" r="1.2"/><circle cx="88" cy="160" r="1.4"/>
  <circle cx="730" cy="880" r="1.6"/><circle cx="680" cy="912" r="1.2"/><circle cx="712" cy="840" r="1.4"/>
</g>
<g stroke="#141412" fill="none" stroke-width="2.2" stroke-linecap="round" stroke-linejoin="round">

<rect x="26" y="26" width="748" height="948" fill="none" stroke="#141412" stroke-width="3"/>
<rect x="40" y="40" width="720" height="920" fill="none" stroke="#141412" stroke-width="1"/>
<g stroke="#141412" stroke-width="2">
  <line x1="26" y1="58" x2="26" y2="26"/><line x1="26" y1="26" x2="58" y2="26"/>
  <line x1="774" y1="58" x2="774" y2="26"/><line x1="774" y1="26" x2="742" y2="26"/>
  <line x1="26" y1="942" x2="26" y2="974"/><line x1="26" y1="974" x2="58" y2="974"/>
  <line x1="774" y1="942" x2="774" y2="974"/><line x1="774" y1="974" x2="742" y2="974"/>
</g>
<g fill="#141412">
  <path d="M392.0,938 l8,-8 l8,8 l-8,8 Z"/>
  <circle cx="370.0" cy="938" r="2.5"/><circle cx="430.0" cy="938" r="2.5"/>
</g>
<path d="M400.0,210.0 L423.7,342.7 L534.4,265.6 L457.3,376.3 L590.0,400.0 L457.3,423.7 L534.4,534.4 L423.7,457.3 L400.0,590.0 L376.3,457.3 L265.6,534.4 L342.7,423.7 L210.0,400.0 L342.7,376.3 L265.6,265.6 L376.3,342.7 Z"/><path d="M400.0,270.0 L416.8,359.3 L491.9,308.1 L440.7,383.2 L530.0,400.0 L440.7,416.8 L491.9,491.9 L416.8,440.7 L400.0,530.0 L383.2,440.7 L308.1,491.9 L359.3,416.8 L270.0,400.0 L359.3,383.2 L308.1,308.1 L383.2,359.3 Z" stroke-width="1.1"/><circle cx="400" cy="400" r="26"/><circle cx="400" cy="400" r="10" fill="#141412" stroke="none"/><circle cx="291" cy="209" r="2.1" stroke="none" fill="#141412"/><circle cx="135" cy="513" r="1.7" stroke="none" fill="#141412"/><circle cx="126" cy="491" r="1.3" stroke="none" fill="#141412"/><circle cx="359" cy="145" r="1.3" stroke="none" fill="#141412"/><circle cx="353" cy="743" r="1.4" stroke="none" fill="#141412"/><circle cx="228" cy="586" r="2.5" stroke="none" fill="#141412"/><circle cx="695" cy="127" r="2.4" stroke="none" fill="#141412"/><circle cx="270" cy="204" r="1.4" stroke="none" fill="#141412"/><circle cx="281" cy="735" r="1.5" stroke="none" fill="#141412"/><circle cx="451" cy="595" r="1.7" stroke="none" fill="#141412"/><circle cx="430" cy="140" r="1.3" stroke="none" fill="#141412"/><circle cx="218" cy="628" r="1.8" stroke="none" fill="#141412"/><circle cx="583" cy="642" r="1.5" stroke="none" fill="#141412"/><circle cx="633" cy="666" r="1.6" stroke="none" fill="#141412"/><circle cx="698" cy="183" r="1.8" stroke="none" fill="#141412"/><circle cx="559" cy="210" r="1.9" stroke="none" fill="#141412"/><circle cx="114" cy="618" r="2.3" stroke="none" fill="#141412"/><circle cx="445" cy="782" r="1.6" stroke="none" fill="#141412"/><circle cx="521" cy="560" r="2.0" stroke="none" fill="#141412"/><circle cx="373" cy="754" r="2.5" stroke="none" fill="#141412"/><circle cx="384" cy="615" r="1.3" stroke="none" fill="#141412"/><circle cx="525" cy="601" r="2.6" stroke="none" fill="#141412"/><circle cx="600" cy="315" r="1.7" stroke="none" fill="#141412"/><circle cx="505" cy="108" r="1.8" stroke="none" fill="#141412"/><circle cx="194" cy="183" r="1.3" stroke="none" fill="#141412"/><circle cx="566" cy="192" r="1.5" stroke="none" fill="#141412"/><circle cx="332" cy="778" r="1.3" stroke="none" fill="#141412"/><circle cx="638" cy="737" r="2.4" stroke="none" fill="#141412"/><circle cx="312" cy="789" r="2.5" stroke="none" fill="#141412"/><circle cx="184" cy="229" r="1.5" stroke="none" fill="#141412"/><circle cx="93" cy="421" r="1.7" stroke="none" fill="#141412"/><circle cx="441" cy="843" r="2.2" stroke="none" fill="#141412"/><circle cx="509" cy="133" r="2.5" stroke="none" fill="#141412"/><circle cx="574" cy="781" r="2.3" stroke="none" fill="#141412"/><circle cx="154" cy="591" r="1.3" stroke="none" fill="#141412"/><circle cx="132" cy="255" r="1.4" stroke="none" fill="#141412"/><path d="M150.0,900.0 L150.9,886.7 L150.9,876.1 L153.1,866.0 L154.4,857.4 L158.9,842.8 L158.8,832.6 L161.0,820.4 L165.0,813.5 L164.8,799.9 L164.7,787.0 L167.6,776.6 L171.6,765.0 L169.4,757.7 L173.5,742.7 L175.2,731.1 L176.8,724.5 L180.1,712.1 L180.0,700.0"/><path d="M160,860 l34,-18 M160,860 l22,16" stroke-width="1.4"/><path d="M166,822 l34,-18 M166,822 l22,16" stroke-width="1.4"/><path d="M172,784 l34,-18 M172,784 l22,16" stroke-width="1.4"/><path d="M178,746 l34,-18 M178,746 l22,16" stroke-width="1.4"/><path d="M650.0,900.0 L647.2,888.2 L645.1,879.1 L645.2,868.0 L642.5,854.2 L643.2,846.8 L641.7,834.8 L639.9,823.4 L635.4,811.2 L634.3,797.7 L631.1,787.8 L630.5,778.7 L632.2,766.4 L630.4,757.9 L628.9,743.8 L623.7,732.0 L621.9,720.8 L622.3,713.0 L620.0,700.0"/><path d="M640,860 l-34,-18 M640,860 l-22,16" stroke-width="1.4"/><path d="M634,822 l-34,-18 M634,822 l-22,16" stroke-width="1.4"/><path d="M628,784 l-34,-18 M628,784 l-22,16" stroke-width="1.4"/><path d="M622,746 l-34,-18 M622,746 l-22,16" stroke-width="1.4"/><g clip-path="url(#h15241)" stroke-width="0.8"><line x1="270" y1="-36" x2="1136" y2="571"/><line x1="265" y1="-28" x2="1131" y2="578"/><line x1="260" y1="-21" x2="1125" y2="585"/><line x1="255" y1="-13" x2="1120" y2="593"/><line x1="249" y1="-6" x2="1115" y2="600"/><line x1="244" y1="1" x2="1110" y2="607"/><line x1="239" y1="9" x2="1105" y2="615"/><line x1="234" y1="16" x2="1100" y2="622"/><line x1="229" y1="23" x2="1094" y2="630"/><line x1="224" y1="31" x2="1089" y2="637"/><line x1="218" y1="38" x2="1084" y2="644"/><line x1="213" y1="46" x2="1079" y2="652"/><line x1="208" y1="53" x2="1074" y2="659"/><line x1="203" y1="60" x2="1069" y2="666"/><line x1="198" y1="68" x2="1063" y2="674"/><line x1="193" y1="75" x2="1058" y2="681"/><line x1="187" y1="82" x2="1053" y2="689"/><line x1="182" y1="90" x2="1048" y2="696"/><line x1="177" y1="97" x2="1043" y2="703"/><line x1="172" y1="104" x2="1038" y2="711"/><line x1="167" y1="112" x2="1032" y2="718"/><line x1="162" y1="119" x2="1027" y2="725"/><line x1="156" y1="127" x2="1022" y2="733"/><line x1="151" y1="134" x2="1017" y2="740"/><line x1="146" y1="141" x2="1012" y2="747"/><line x1="141" y1="149" x2="1007" y2="755"/><line x1="136" y1="156" x2="1001" y2="762"/><line x1="131" y1="163" x2="996" y2="770"/><line x1="125" y1="171" x2="991" y2="777"/><line x1="120" y1="178" x2="986" y2="784"/><line x1="115" y1="186" x2="981" y2="792"/><line x1="110" y1="193" x2="976" y2="799"/><line x1="105" y1="200" x2="970" y2="806"/><line x1="100" y1="208" x2="965" y2="814"/><line x1="94" y1="215" x2="960" y2="821"/><line x1="89" y1="222" x2="955" y2="829"/><line x1="84" y1="230" x2="950" y2="836"/><line x1="79" y1="237" x2="945" y2="843"/><line x1="74" y1="245" x2="940" y2="851"/><line x1="69" y1="252" x2="934" y2="858"/><line x1="64" y1="259" x2="929" y2="865"/><line x1="58" y1="267" x2="924" y2="873"/><line x1="53" y1="274" x2="919" y2="880"/><line x1="48" y1="281" x2="914" y2="888"/><line x1="43" y1="289" x2="909" y2="895"/><line x1="38" y1="296" x2="903" y2="902"/><line x1="33" y1="304" x2="898" y2="910"/><line x1="27" y1="311" x2="893" y2="917"/><line x1="22" y1="318" x2="888" y2="924"/><line x1="17" y1="326" x2="883" y2="932"/><line x1="12" y1="333" x2="878" y2="939"/><line x1="7" y1="340" x2="872" y2="947"/><line x1="2" y1="348" x2="867" y2="954"/><line x1="-4" y1="355" x2="862" y2="961"/><line x1="-9" y1="363" x2="857" y2="969"/><line x1="-14" y1="370" x2="852" y2="976"/><line x1="-19" y1="377" x2="847" y2="983"/><line x1="-24" y1="385" x2="841" y2="991"/><line x1="-29" y1="392" x2="836" y2="998"/><line x1="-35" y1="399" x2="831" y2="1006"/><line x1="-40" y1="407" x2="826" y2="1013"/><line x1="-45" y1="414" x2="821" y2="1020"/><line x1="-50" y1="422" x2="816" y2="1028"/><line x1="-55" y1="429" x2="810" y2="1035"/><line x1="-60" y1="436" x2="805" y2="1042"/><line x1="-66" y1="444" x2="800" y2="1050"/><line x1="-71" y1="451" x2="795" y2="1057"/><line x1="-76" y1="458" x2="790" y2="1065"/><line x1="-81" y1="466" x2="785" y2="1072"/><line x1="-86" y1="473" x2="779" y2="1079"/><line x1="-91" y1="480" x2="774" y2="1087"/><line x1="-97" y1="488" x2="769" y2="1094"/><line x1="-102" y1="495" x2="764" y2="1101"/><line x1="-107" y1="503" x2="759" y2="1109"/><line x1="-112" y1="510" x2="754" y2="1116"/><line x1="-117" y1="517" x2="749" y2="1123"/><line x1="-122" y1="525" x2="743" y2="1131"/><line x1="-127" y1="532" x2="738" y2="1138"/><line x1="-133" y1="539" x2="733" y2="1146"/><line x1="-138" y1="547" x2="728" y2="1153"/><line x1="-143" y1="554" x2="723" y2="1160"/><line x1="-148" y1="562" x2="718" y2="1168"/><line x1="-153" y1="569" x2="712" y2="1175"/><line x1="-158" y1="576" x2="707" y2="1182"/><line x1="-164" y1="584" x2="702" y2="1190"/><line x1="-169" y1="591" x2="697" y2="1197"/><line x1="-174" y1="598" x2="692" y2="1205"/><line x1="-179" y1="606" x2="687" y2="1212"/><line x1="-184" y1="613" x2="681" y2="1219"/><line x1="-189" y1="621" x2="676" y2="1227"/><line x1="-195" y1="628" x2="671" y2="1234"/><line x1="-200" y1="635" x2="666" y2="1241"/><line x1="-205" y1="643" x2="661" y2="1249"/><line x1="-210" y1="650" x2="656" y2="1256"/><line x1="-215" y1="657" x2="650" y2="1264"/><line x1="-220" y1="665" x2="645" y2="1271"/><line x1="-226" y1="672" x2="640" y2="1278"/><line x1="-231" y1="680" x2="635" y2="1286"/><line x1="-236" y1="687" x2="630" y2="1293"/><line x1="-241" y1="694" x2="625" y2="1300"/><line x1="-246" y1="702" x2="619" y2="1308"/><line x1="-251" y1="709" x2="614" y2="1315"/><line x1="-257" y1="716" x2="609" y2="1323"/><line x1="-262" y1="724" x2="604" y2="1330"/><line x1="-267" y1="731" x2="599" y2="1337"/><line x1="-272" y1="739" x2="594" y2="1345"/><line x1="-277" y1="746" x2="588" y2="1352"/><line x1="-282" y1="753" x2="583" y2="1359"/><line x1="-288" y1="761" x2="578" y2="1367"/><line x1="-293" y1="768" x2="573" y2="1374"/><line x1="-298" y1="775" x2="568" y2="1382"/><line x1="-303" y1="783" x2="563" y2="1389"/><line x1="-308" y1="790" x2="558" y2="1396"/><line x1="-313" y1="797" x2="552" y2="1404"/><line x1="-318" y1="805" x2="547" y2="1411"/><line x1="-324" y1="812" x2="542" y2="1418"/><line x1="-329" y1="820" x2="537" y2="1426"/><line x1="-334" y1="827" x2="532" y2="1433"/></g>
</g>
</svg>